<?xml version="1.0" encoding="UTF-8" ?>
<svg version="1.1" width="50" height="50" xmlns="http://www.w3.org/2000/svg" shape-rendering="crispEdges">
<rect x="2" y="21" width="5" height="1" fill="#060608" />
<rect x="25" y="21" width="5" height="1" fill="#060608" />
<rect x="1" y="22" width="2" height="1" fill="#060608" />
<rect x="3" y="22" width="3" height="2" fill="#FAD6B8" />
<rect x="6" y="22" width="2" height="1" fill="#060608" />
<rect x="24" y="22" width="2" height="1" fill="#060608" />
<rect x="26" y="22" width="3" height="1" fill="#FAD6B8" />
<rect x="29" y="22" width="2" height="1" fill="#060608" />
<rect x="0" y="23" width="2" height="1" fill="#060608" />
<rect x="2" y="23" width="1" height="1" fill="#FAD6B8" />
<rect x="6" y="23" width="1" height="1" fill="#FAD6B8" />
<rect x="7" y="23" width="2" height="1" fill="#060608" />
<rect x="24" y="23" width="1" height="2" fill="#060608" />
<rect x="25" y="23" width="1" height="5" fill="#FAD6B8" />
<rect x="26" y="23" width="3" height="3" fill="#BA756A" />
<rect x="29" y="23" width="1" height="1" fill="#FAD6B8" />
<rect x="30" y="23" width="10" height="1" fill="#060608" />
<rect x="0" y="24" width="1" height="4" fill="#060608" />
<rect x="1" y="24" width="1" height="3" fill="#FAD6B8" />
<rect x="2" y="24" width="5" height="1" fill="#060608" />
<rect x="7" y="24" width="1" height="7" fill="#FAD6B8" />
<rect x="8" y="24" width="1" height="3" fill="#060608" />
<rect x="15" y="24" width="9" height="1" fill="#060608" />
<rect x="29" y="24" width="1" height="5" fill="#BA756A" />
<rect x="30" y="24" width="9" height="1" fill="#FAD6B8" />
<rect x="39" y="24" width="2" height="1" fill="#060608" />
<rect x="2" y="25" width="2" height="1" fill="#060608" />
<rect x="4" y="25" width="1" height="2" fill="#FAD6B8" />
<rect x="5" y="25" width="2" height="2" fill="#060608" />
<rect x="12" y="25" width="4" height="1" fill="#060608" />
<rect x="16" y="25" width="9" height="4" fill="#FAD6B8" />
<rect x="30" y="25" width="1" height="4" fill="#BA756A" />
<rect x="31" y="25" width="9" height="1" fill="#FAD6B8" />
<rect x="40" y="25" width="2" height="1" fill="#060608" />
<rect x="2" y="26" width="1" height="1" fill="#060608" />
<rect x="3" y="26" width="1" height="2" fill="#FAD6B8" />
<rect x="9" y="26" width="4" height="1" fill="#060608" />
<rect x="13" y="26" width="3" height="3" fill="#FAD6B8" />
<rect x="26" y="26" width="1" height="2" fill="#FAD6B8" />
<rect x="27" y="26" width="2" height="2" fill="#BA756A" />
<rect x="31" y="26" width="1" height="2" fill="#BA756A" />
<rect x="32" y="26" width="9" height="1" fill="#FAD6B8" />
<rect x="41" y="26" width="1" height="2" fill="#060608" />
<rect x="1" y="27" width="1" height="2" fill="#060608" />
<rect x="2" y="27" width="1" height="1" fill="#FAD6B8" />
<rect x="4" y="27" width="2" height="3" fill="#060608" />
<rect x="6" y="27" width="1" height="5" fill="#FAD6B8" />
<rect x="8" y="27" width="5" height="2" fill="#FAD6B8" />
<rect x="32" y="27" width="5" height="1" fill="#E9B5A3" />
<rect x="37" y="27" width="4" height="1" fill="#FAD6B8" />
<rect x="42" y="27" width="4" height="1" fill="#060608" />
<rect x="2" y="28" width="2" height="1" fill="#060608" />
<rect x="25" y="28" width="4" height="14" fill="#E9B5A3" />
<rect x="31" y="28" width="4" height="13" fill="#E9B5A3" />
<rect x="35" y="28" width="2" height="4" fill="#060608" />
<rect x="37" y="28" width="6" height="10" fill="#E9B5A3" />
<rect x="43" y="28" width="2" height="6" fill="#BA756A" />
<rect x="45" y="28" width="2" height="1" fill="#060608" />
<rect x="8" y="29" width="2" height="1" fill="#FAD6B8" />
<rect x="10" y="29" width="15" height="12" fill="#E9B5A3" />
<rect x="29" y="29" width="2" height="14" fill="#E9B5A3" />
<rect x="45" y="29" width="1" height="6" fill="#BA756A" />
<rect x="46" y="29" width="1" height="7" fill="#060608" />
<rect x="4" y="30" width="1" height="10" fill="#060608" />
<rect x="5" y="30" width="1" height="2" fill="#FAD6B8" />
<rect x="8" y="30" width="2" height="19" fill="#E9B5A3" />
<rect x="7" y="31" width="1" height="13" fill="#E9B5A3" />
<rect x="5" y="32" width="2" height="7" fill="#E9B5A3" />
<rect x="35" y="32" width="2" height="8" fill="#E9B5A3" />
<rect x="43" y="34" width="1" height="3" fill="#E9B5A3" />
<rect x="44" y="34" width="1" height="1" fill="#BA756A" />
<rect x="44" y="35" width="1" height="1" fill="#E9B5A3" />
<rect x="45" y="35" width="1" height="2" fill="#060608" />
<rect x="44" y="36" width="1" height="2" fill="#060608" />
<rect x="43" y="37" width="1" height="2" fill="#060608" />
<rect x="37" y="38" width="5" height="1" fill="#E9B5A3" />
<rect x="42" y="38" width="1" height="2" fill="#060608" />
<rect x="5" y="39" width="1" height="4" fill="#060608" />
<rect x="6" y="39" width="1" height="3" fill="#E9B5A3" />
<rect x="37" y="39" width="4" height="1" fill="#E9B5A3" />
<rect x="41" y="39" width="1" height="2" fill="#060608" />
<rect x="35" y="40" width="2" height="1" fill="#BA756A" />
<rect x="37" y="40" width="3" height="8" fill="#E9B5A3" />
<rect x="40" y="40" width="1" height="9" fill="#060608" />
<rect x="10" y="41" width="2" height="1" fill="#E9B5A3" />
<rect x="12" y="41" width="4" height="1" fill="#BA756A" />
<rect x="16" y="41" width="4" height="1" fill="#E9B5A3" />
<rect x="20" y="41" width="5" height="1" fill="#BA756A" />
<rect x="31" y="41" width="3" height="7" fill="#E9B5A3" />
<rect x="34" y="41" width="2" height="1" fill="#BA756A" />
<rect x="36" y="41" width="1" height="8" fill="#E9B5A3" />
<rect x="6" y="42" width="1" height="3" fill="#060608" />
<rect x="10" y="42" width="1" height="7" fill="#E9B5A3" />
<rect x="11" y="42" width="2" height="1" fill="#BA756A" />
<rect x="13" y="42" width="3" height="1" fill="#060608" />
<rect x="16" y="42" width="3" height="7" fill="#E9B5A3" />
<rect x="19" y="42" width="2" height="1" fill="#BA756A" />
<rect x="21" y="42" width="8" height="1" fill="#060608" />
<rect x="34" y="42" width="1" height="7" fill="#060608" />
<rect x="35" y="42" width="1" height="1" fill="#BA756A" />
<rect x="11" y="43" width="1" height="2" fill="#BA756A" />
<rect x="12" y="43" width="2" height="1" fill="#060608" />
<rect x="15" y="43" width="1" height="7" fill="#060608" />
<rect x="19" y="43" width="1" height="1" fill="#BA756A" />
<rect x="20" y="43" width="2" height="1" fill="#060608" />
<rect x="28" y="43" width="2" height="1" fill="#060608" />
<rect x="30" y="43" width="1" height="6" fill="#E9B5A3" />
<rect x="35" y="43" width="1" height="7" fill="#060608" />
<rect x="7" y="44" width="1" height="6" fill="#060608" />
<rect x="12" y="44" width="1" height="5" fill="#060608" />
<rect x="19" y="44" width="1" height="4" fill="#E9B5A3" />
<rect x="20" y="44" width="1" height="5" fill="#060608" />
<rect x="29" y="44" width="1" height="6" fill="#060608" />
<rect x="11" y="45" width="1" height="3" fill="#E9B5A3" />
<rect x="11" y="48" width="1" height="2" fill="#060608" />
<rect x="19" y="48" width="1" height="2" fill="#060608" />
<rect x="31" y="48" width="2" height="1" fill="#E9B5A3" />
<rect x="33" y="48" width="1" height="2" fill="#060608" />
<rect x="37" y="48" width="2" height="1" fill="#E9B5A3" />
<rect x="39" y="48" width="1" height="2" fill="#060608" />
<rect x="8" y="49" width="3" height="1" fill="#060608" />
<rect x="16" y="49" width="3" height="1" fill="#060608" />
<rect x="30" y="49" width="3" height="1" fill="#060608" />
<rect x="36" y="49" width="3" height="1" fill="#060608" />
</svg>